<?xml version="1.0" encoding="UTF-8" standalone="no"?>
<!-- Created with Inkscape (http://www.inkscape.org/) -->

<svg
   xmlns:dc="http://purl.org/dc/elements/1.1/"
   xmlns:cc="http://creativecommons.org/ns#"
   xmlns:rdf="http://www.w3.org/1999/02/22-rdf-syntax-ns#"
   xmlns:svg="http://www.w3.org/2000/svg"
   xmlns="http://www.w3.org/2000/svg"
   xmlns:sodipodi="http://sodipodi.sourceforge.net/DTD/sodipodi-0.dtd"
   xmlns:inkscape="http://www.inkscape.org/namespaces/inkscape"
   width="76.014633mm"
   height="25.224113mm"
   viewBox="0 0 76.014633 25.224113"
   version="1.1"
   id="svg8"
   inkscape:version="0.92.5 (2060ec1f9f, 2020-04-08)"
   sodipodi:docname="logo.svg">
  <defs
     id="defs2" />
  <sodipodi:namedview
     id="base"
     pagecolor="#ffffff"
     bordercolor="#666666"
     borderopacity="1.0"
     inkscape:pageopacity="0.0"
     inkscape:pageshadow="2"
     inkscape:zoom="0.35"
     inkscape:cx="235.07828"
     inkscape:cy="116.23904"
     inkscape:document-units="mm"
     inkscape:current-layer="layer1"
     showgrid="false"
     inkscape:window-width="1920"
     inkscape:window-height="1001"
     inkscape:window-x="-9"
     inkscape:window-y="-9"
     inkscape:window-maximized="1" />
  <metadata
     id="metadata5">
    <rdf:RDF>
      <cc:Work
         rdf:about="">
        <dc:format>image/svg+xml</dc:format>
        <dc:type
           rdf:resource="http://purl.org/dc/dcmitype/StillImage" />
        <dc:title></dc:title>
      </cc:Work>
    </rdf:RDF>
  </metadata>
  <g
     inkscape:label="Layer 1"
     inkscape:groupmode="layer"
     id="layer1"
     transform="translate(135.52518,-154.36413)">
    <g
       id="g3034"
       transform="matrix(1.0711832,0,0,1.0711832,299.19634,172.37578)"
       inkscape:export-xdpi="100.02515"
       inkscape:export-ydpi="100.02515">
      <g
         transform="matrix(1.4833343,0,0,1.4833343,187.91123,4.7911707)"
         id="g2940">
        <rect
           style="opacity:1;vector-effect:none;fill:#1d7df3;fill-opacity:1;fill-rule:evenodd;stroke:none;stroke-width:0.21682574;stroke-linecap:butt;stroke-linejoin:miter;stroke-miterlimit:4;stroke-dasharray:none;stroke-dashoffset:0;stroke-opacity:1;paint-order:normal"
           id="rect2914"
           width="15.874969"
           height="15.874977"
           x="-400.27676"
           y="-14.56576"
           rx="3.7187653"
           ry="3.7187653" />
        <circle
           style="opacity:1;vector-effect:none;fill:#ffd000;fill-opacity:1;fill-rule:evenodd;stroke:none;stroke-width:0.22645082;stroke-linecap:butt;stroke-linejoin:miter;stroke-miterlimit:4;stroke-dasharray:none;stroke-dashoffset:0;stroke-opacity:1;paint-order:normal"
           id="path2903"
           cx="-395.37332"
           cy="-8.1921692"
           r="2.6378107" />
        <path
           style="opacity:1;vector-effect:none;fill:#ffffff;fill-opacity:0.5362319;fill-rule:evenodd;stroke:none;stroke-width:0.22645082;stroke-linecap:butt;stroke-linejoin:miter;stroke-miterlimit:4;stroke-dasharray:none;stroke-dashoffset:0;stroke-opacity:1;paint-order:normal"
           d="m -392.47341,-9.6138721 a 2.6378109,2.6378109 0 0 0 -2.63782,2.6378202 2.6378109,2.6378109 0 0 0 0.006,0.170015 1.9875282,1.9875282 0 0 0 -1.64757,1.958017 1.9875282,1.9875282 0 0 0 1.9876,1.9876021 1.9875282,1.9875282 0 0 0 0.37427,-0.037207 c 0.0159,6.511e-4 0.0317,0.00195 0.0478,0.00195 h 4.75345 a 2.4135754,2.4135754 0 0 0 0.27337,0.016925 2.4135754,2.4135754 0 0 0 2.41355,-2.4135442 2.4135754,2.4135754 0 0 0 -2.41355,-2.4135448 2.4135754,2.4135754 0 0 0 -0.60332,0.078548 2.6378109,2.6378109 0 0 0 -2.55371,-1.9865679 z"
           id="circle2905"
           inkscape:connector-curvature="0" />
      </g>
      <path
         d="m -374.21509,-14.080589 h 0.72171 l 1.09349,2.755594 1.10442,-2.755594 h 0.73264 l -1.35593,3.313274 1.48715,3.5101027 2.81027,-6.8780517 h 0.83105 l -3.2914,7.7637786 h -0.67797 l -1.6293,-3.8381496 -1.64023,3.8381496 h -0.66703 l -3.28047,-7.7637786 h 0.82012 l 2.8212,6.8780517 1.47621,-3.5101027 z"
         style="font-style:normal;font-variant:normal;font-weight:normal;font-stretch:normal;font-size:10.93489933px;line-height:1.25;font-family:Raleway;-inkscape-font-specification:Raleway;font-variant-ligatures:normal;font-variant-position:normal;font-variant-caps:normal;font-variant-numeric:normal;font-variant-alternates:normal;font-feature-settings:normal;text-indent:0;text-align:start;text-decoration:none;text-decoration-line:none;text-decoration-style:solid;text-decoration-color:#000000;letter-spacing:0px;word-spacing:0px;text-transform:none;writing-mode:lr-tb;direction:ltr;text-orientation:mixed;dominant-baseline:auto;baseline-shift:baseline;text-anchor:start;white-space:normal;shape-padding:0;vector-effect:none;fill:#1c80f3;fill-opacity:1;stroke:none;stroke-width:0.14644955;stroke-linecap:butt;stroke-linejoin:miter;stroke-miterlimit:4;stroke-dasharray:none;stroke-dashoffset:0;stroke-opacity:1"
         id="path2989"
         inkscape:connector-curvature="0" />
      <path
         d="m -364.08476,-6.2621364 q -0.62329,0 -1.14816,-0.2296329 -0.51394,-0.2405678 -0.89666,-0.6451591 -0.38272,-0.4155262 -0.60142,-0.9513362 -0.20776,-0.5358101 -0.20776,-1.1481644 0,-0.6014195 0.20776,-1.126295 0.2187,-0.53581 0.59048,-0.929466 0.38272,-0.404591 0.9076,-0.634224 0.52487,-0.240568 1.13723,-0.240568 0.62329,0 1.13723,0.240568 0.52487,0.229633 0.89666,0.634224 0.37179,0.404591 0.57955,0.929466 0.20776,0.5248755 0.20776,1.1153601 0,0.087479 0,0.1749583 0,0.087479 -0.0109,0.1202839 h -4.87697 q 0.0328,0.4592658 0.20777,0.8529222 0.18589,0.3827215 0.4702,0.6670288 0.2843,0.2843074 0.64516,0.4483309 0.37178,0.1530886 0.78731,0.1530886 0.27337,0 0.54674,-0.076544 0.27338,-0.076544 0.50301,-0.2077631 0.22963,-0.1312188 0.41553,-0.3171121 0.18589,-0.1968281 0.2843,-0.426461 l 0.64516,0.1749584 q -0.13122,0.317112 -0.37178,0.5795496 -0.24057,0.2515027 -0.55768,0.4483309 -0.31712,0.1858933 -0.69984,0.2843074 -0.38272,0.109349 -0.79825,0.109349 z m 2.0995,-3.2586 q -0.0328,-0.4592658 -0.21869,-0.8310526 -0.17496,-0.382721 -0.45927,-0.656094 -0.27337,-0.273372 -0.64516,-0.426461 -0.36085,-0.153088 -0.77638,-0.153088 -0.41552,0 -0.78731,0.153088 -0.37179,0.153089 -0.65609,0.426461 -0.27338,0.273373 -0.44833,0.656094 -0.16403,0.3827217 -0.19683,0.8310526 z"
         style="font-style:normal;font-variant:normal;font-weight:normal;font-stretch:normal;font-size:10.93489933px;line-height:1.25;font-family:Raleway;-inkscape-font-specification:Raleway;font-variant-ligatures:normal;font-variant-position:normal;font-variant-caps:normal;font-variant-numeric:normal;font-variant-alternates:normal;font-feature-settings:normal;text-indent:0;text-align:start;text-decoration:none;text-decoration-line:none;text-decoration-style:solid;text-decoration-color:#000000;letter-spacing:0px;word-spacing:0px;text-transform:none;writing-mode:lr-tb;direction:ltr;text-orientation:mixed;dominant-baseline:auto;baseline-shift:baseline;text-anchor:start;white-space:normal;shape-padding:0;vector-effect:none;fill:#1c80f3;fill-opacity:1;stroke:none;stroke-width:0.14644955;stroke-linecap:butt;stroke-linejoin:miter;stroke-miterlimit:4;stroke-dasharray:none;stroke-dashoffset:0;stroke-opacity:1"
         id="path2991"
         inkscape:connector-curvature="0" />
      <path
         d="m -358.68411,-6.2621364 q -0.40459,0 -0.75451,-0.1312188 -0.33898,-0.1421537 -0.60142,-0.3827215 -0.2515,-0.2405678 -0.39366,-0.5576799 -0.14215,-0.3280469 -0.14215,-0.6998335 0,-0.3717866 0.17496,-0.6888987 0.17496,-0.3171121 0.49207,-0.5467449 0.31711,-0.2296329 0.75451,-0.3499168 0.43739,-0.1312188 0.96227,-0.1312188 0.43739,0 0.88573,0.076544 0.44833,0.076544 0.79824,0.218698 v -0.51394 q 0,-0.7545077 -0.42646,-1.1919037 -0.42646,-0.448331 -1.18097,-0.448331 -0.43739,0 -0.89666,0.174958 -0.45926,0.174959 -0.92946,0.503006 l -0.26244,-0.492071 q 1.10442,-0.743573 2.14324,-0.743573 1.07162,0 1.68397,0.601419 0.61236,0.60142 0.61236,1.6621051 v 2.5697013 q 0,0.3061772 0.27337,0.3061772 v 0.656094 q -0.18589,0.032805 -0.28431,0.032805 -0.28431,0 -0.44833,-0.1421537 -0.15309,-0.1421537 -0.16402,-0.3936564 l -0.0219,-0.4483309 q -0.39366,0.5139403 -0.99508,0.7873128 -0.59048,0.2733725 -1.27938,0.2733725 z m 0.17496,-0.5686148 q 0.57955,0 1.06068,-0.218698 0.49207,-0.218698 0.74358,-0.5795496 0.0984,-0.098414 0.14215,-0.2077631 0.0547,-0.1202839 0.0547,-0.218698 v -0.9294665 q -0.37178,-0.1421537 -0.77637,-0.2186979 -0.39366,-0.076544 -0.80919,-0.076544 -0.78731,0 -1.27938,0.3280469 -0.49207,0.328047 -0.49207,0.8638571 0,0.2624376 0.0984,0.4920705 0.10935,0.2296328 0.28431,0.4045912 0.18589,0.1640235 0.4374,0.2624376 0.2515,0.098414 0.53581,0.098414 z"
         style="font-style:normal;font-variant:normal;font-weight:normal;font-stretch:normal;font-size:10.93489933px;line-height:1.25;font-family:Raleway;-inkscape-font-specification:Raleway;font-variant-ligatures:normal;font-variant-position:normal;font-variant-caps:normal;font-variant-numeric:normal;font-variant-alternates:normal;font-feature-settings:normal;text-indent:0;text-align:start;text-decoration:none;text-decoration-line:none;text-decoration-style:solid;text-decoration-color:#000000;letter-spacing:0px;word-spacing:0px;text-transform:none;writing-mode:lr-tb;direction:ltr;text-orientation:mixed;dominant-baseline:auto;baseline-shift:baseline;text-anchor:start;white-space:normal;shape-padding:0;vector-effect:none;fill:#1c80f3;fill-opacity:1;stroke:none;stroke-width:0.14644955;stroke-linecap:butt;stroke-linejoin:miter;stroke-miterlimit:4;stroke-dasharray:none;stroke-dashoffset:0;stroke-opacity:1"
         id="path2993"
         inkscape:connector-curvature="0" />
      <path
         d="m -351.46691,-6.6448579 q -0.0656,0.032805 -0.19683,0.087479 -0.12028,0.054674 -0.2843,0.109349 -0.16403,0.054674 -0.37179,0.098414 -0.20776,0.04374 -0.4374,0.04374 -0.24056,0 -0.45926,-0.065609 -0.2187,-0.065609 -0.38272,-0.1968282 -0.16403,-0.1421537 -0.26244,-0.3499168 -0.0984,-0.2077631 -0.0984,-0.4811356 v -4.0787175 h -0.78732 v -0.590485 h 0.78732 v -1.924542 h 0.74357 v 1.924542 h 1.31219 v 0.590485 h -1.31219 v 3.8709545 q 0.0219,0.317112 0.2187,0.4702006 0.20776,0.1421537 0.4702,0.1421537 0.31711,0 0.55768,-0.098414 0.24056,-0.109349 0.30617,-0.1530886 z"
         style="font-style:normal;font-variant:normal;font-weight:normal;font-stretch:normal;font-size:10.93489933px;line-height:1.25;font-family:Raleway;-inkscape-font-specification:Raleway;font-variant-ligatures:normal;font-variant-position:normal;font-variant-caps:normal;font-variant-numeric:normal;font-variant-alternates:normal;font-feature-settings:normal;text-indent:0;text-align:start;text-decoration:none;text-decoration-line:none;text-decoration-style:solid;text-decoration-color:#000000;letter-spacing:0px;word-spacing:0px;text-transform:none;writing-mode:lr-tb;direction:ltr;text-orientation:mixed;dominant-baseline:auto;baseline-shift:baseline;text-anchor:start;white-space:normal;shape-padding:0;vector-effect:none;fill:#1c80f3;fill-opacity:1;stroke:none;stroke-width:0.14644955;stroke-linecap:butt;stroke-linejoin:miter;stroke-miterlimit:4;stroke-dasharray:none;stroke-dashoffset:0;stroke-opacity:1"
         id="path2995"
         inkscape:connector-curvature="0" />
      <path
         d="m -345.7377,-6.3714854 h -0.74358 v -3.1820557 q 0,-0.9732059 -0.33898,-1.4543419 -0.32805,-0.481135 -0.9732,-0.481135 -0.31712,0 -0.63423,0.131218 -0.30618,0.120284 -0.57955,0.338982 -0.27337,0.218698 -0.48113,0.513941 -0.19683,0.295242 -0.29525,0.6451587 v 3.4882329 h -0.74357 v -7.9824766 h 0.74357 v 3.575712 q 0.33899,-0.645159 0.9404,-1.016946 0.60142,-0.371786 1.30126,-0.371786 0.49207,0 0.83105,0.185893 0.33898,0.174959 0.55768,0.503006 0.2187,0.317112 0.31711,0.776377 0.0984,0.448331 0.0984,0.9950763 z"
         style="font-style:normal;font-variant:normal;font-weight:normal;font-stretch:normal;font-size:10.93489933px;line-height:1.25;font-family:Raleway;-inkscape-font-specification:Raleway;font-variant-ligatures:normal;font-variant-position:normal;font-variant-caps:normal;font-variant-numeric:normal;font-variant-alternates:normal;font-feature-settings:normal;text-indent:0;text-align:start;text-decoration:none;text-decoration-line:none;text-decoration-style:solid;text-decoration-color:#000000;letter-spacing:0px;word-spacing:0px;text-transform:none;writing-mode:lr-tb;direction:ltr;text-orientation:mixed;dominant-baseline:auto;baseline-shift:baseline;text-anchor:start;white-space:normal;shape-padding:0;vector-effect:none;fill:#1c80f3;fill-opacity:1;stroke:none;stroke-width:0.14644955;stroke-linecap:butt;stroke-linejoin:miter;stroke-miterlimit:4;stroke-dasharray:none;stroke-dashoffset:0;stroke-opacity:1"
         id="path2997"
         inkscape:connector-curvature="0" />
      <path
         d="m -341.68102,-6.2621364 q -0.62329,0 -1.14817,-0.2296329 -0.51394,-0.2405678 -0.89666,-0.6451591 -0.38272,-0.4155262 -0.60142,-0.9513362 -0.20776,-0.5358101 -0.20776,-1.1481644 0,-0.6014195 0.20776,-1.126295 0.2187,-0.53581 0.59048,-0.929466 0.38273,-0.404591 0.9076,-0.634224 0.52488,-0.240568 1.13723,-0.240568 0.62329,0 1.13723,0.240568 0.52488,0.229633 0.89666,0.634224 0.37179,0.404591 0.57955,0.929466 0.20776,0.5248755 0.20776,1.1153601 0,0.087479 0,0.1749583 0,0.087479 -0.0109,0.1202839 h -4.87697 q 0.0328,0.4592658 0.20777,0.8529222 0.18589,0.3827215 0.4702,0.6670288 0.28431,0.2843074 0.64516,0.4483309 0.37178,0.1530886 0.78731,0.1530886 0.27337,0 0.54675,-0.076544 0.27337,-0.076544 0.503,-0.2077631 0.22963,-0.1312188 0.41553,-0.3171121 0.18589,-0.1968281 0.2843,-0.426461 l 0.64516,0.1749584 q -0.13122,0.317112 -0.37178,0.5795496 -0.24057,0.2515027 -0.55768,0.4483309 -0.31712,0.1858933 -0.69984,0.2843074 -0.38272,0.109349 -0.79824,0.109349 z m 2.0995,-3.2586 q -0.0328,-0.4592658 -0.2187,-0.8310526 -0.17496,-0.382721 -0.45927,-0.656094 -0.27337,-0.273372 -0.64516,-0.426461 -0.36085,-0.153088 -0.77637,-0.153088 -0.41553,0 -0.78732,0.153088 -0.37178,0.153089 -0.65609,0.426461 -0.27337,0.273373 -0.44833,0.656094 -0.16403,0.3827217 -0.19683,0.8310526 z"
         style="font-style:normal;font-variant:normal;font-weight:normal;font-stretch:normal;font-size:10.93489933px;line-height:1.25;font-family:Raleway;-inkscape-font-specification:Raleway;font-variant-ligatures:normal;font-variant-position:normal;font-variant-caps:normal;font-variant-numeric:normal;font-variant-alternates:normal;font-feature-settings:normal;text-indent:0;text-align:start;text-decoration:none;text-decoration-line:none;text-decoration-style:solid;text-decoration-color:#000000;letter-spacing:0px;word-spacing:0px;text-transform:none;writing-mode:lr-tb;direction:ltr;text-orientation:mixed;dominant-baseline:auto;baseline-shift:baseline;text-anchor:start;white-space:normal;shape-padding:0;vector-effect:none;fill:#1c80f3;fill-opacity:1;stroke:none;stroke-width:0.14644955;stroke-linecap:butt;stroke-linejoin:miter;stroke-miterlimit:4;stroke-dasharray:none;stroke-dashoffset:0;stroke-opacity:1"
         id="path2999"
         inkscape:connector-curvature="0" />
      <path
         d="m -334.86978,-11.412474 q -0.75451,0.02187 -1.31219,0.415526 -0.55768,0.393656 -0.78731,1.0825552 v 3.5429074 h -0.74357 v -5.6970826 h 0.69983 v 1.366862 q 0.31711,-0.656094 0.85292,-1.02788 0.53581,-0.371787 1.14817,-0.371787 0.0875,0 0.14215,0.01093 z"
         style="font-style:normal;font-variant:normal;font-weight:normal;font-stretch:normal;font-size:10.93489933px;line-height:1.25;font-family:Raleway;-inkscape-font-specification:Raleway;font-variant-ligatures:normal;font-variant-position:normal;font-variant-caps:normal;font-variant-numeric:normal;font-variant-alternates:normal;font-feature-settings:normal;text-indent:0;text-align:start;text-decoration:none;text-decoration-line:none;text-decoration-style:solid;text-decoration-color:#000000;letter-spacing:0px;word-spacing:0px;text-transform:none;writing-mode:lr-tb;direction:ltr;text-orientation:mixed;dominant-baseline:auto;baseline-shift:baseline;text-anchor:start;white-space:normal;shape-padding:0;vector-effect:none;fill:#1c80f3;fill-opacity:1;stroke:none;stroke-width:0.14644955;stroke-linecap:butt;stroke-linejoin:miter;stroke-miterlimit:4;stroke-dasharray:none;stroke-dashoffset:0;stroke-opacity:1"
         id="path3001"
         inkscape:connector-curvature="0" />
      <path
         d="m -374.72903,-4.5426518 h 0.64516 l 3.2258,7.7637781 h -0.80918 l -1.00602,-2.42754734 h -3.48823 l -0.99507,2.42754734 h -0.82012 z m 1.88081,4.73481136 -1.56369,-3.83814966 -1.58556,3.83814966 z"
         style="font-style:normal;font-variant:normal;font-weight:normal;font-stretch:normal;font-size:10.93489933px;line-height:1.25;font-family:Raleway;-inkscape-font-specification:Raleway;font-variant-ligatures:normal;font-variant-position:normal;font-variant-caps:normal;font-variant-numeric:normal;font-variant-alternates:normal;font-feature-settings:normal;text-indent:0;text-align:start;text-decoration:none;text-decoration-line:none;text-decoration-style:solid;text-decoration-color:#000000;letter-spacing:0px;word-spacing:0px;text-transform:none;writing-mode:lr-tb;direction:ltr;text-orientation:mixed;dominant-baseline:auto;baseline-shift:baseline;text-anchor:start;white-space:normal;shape-padding:0;vector-effect:none;fill:#1c80f3;fill-opacity:1;stroke:none;stroke-width:0.14644955;stroke-linecap:butt;stroke-linejoin:miter;stroke-miterlimit:4;stroke-dasharray:none;stroke-dashoffset:0;stroke-opacity:1"
         id="path3003"
         inkscape:connector-curvature="0" />
      <path
         d="m -366.98951,3.3304753 q -0.7217,0 -1.27938,-0.3608513 -0.54675,-0.3717866 -0.88573,-0.9294664 v 3.5101027 h -0.74357 v -8.0262162 h 0.66703 v 1.1044249 q 0.34991,-0.5358101 0.90759,-0.8638571 0.55768,-0.3389819 1.21378,-0.3389819 0.59048,0 1.08255,0.2515027 0.49207,0.2405678 0.85292,0.656094 0.36086,0.4045913 0.55768,0.94040126 0.20777,0.5358101 0.20777,1.1044249 0,0.6014194 -0.1859,1.13722954 -0.18589,0.5358101 -0.53581,0.9404013 -0.33898,0.4045913 -0.82011,0.6451591 -0.4702,0.2296325 -1.03882,0.2296325 z m -0.20776,-0.6560936 q 0.45926,0 0.83105,-0.1968282 0.38272,-0.1968282 0.64516,-0.5139402 0.27337,-0.328047 0.41552,-0.7326383 0.14216,-0.41552624 0.14216,-0.85292214 0,-0.4592658 -0.16402,-0.874792 -0.16403,-0.4155262 -0.44834,-0.73263816 -0.2843,-0.3171121 -0.67796,-0.5030054 -0.38272,-0.1858933 -0.83105,-0.1858933 -0.28431,0 -0.60142,0.1202839 -0.30618,0.109349 -0.57955,0.3061772 -0.26244,0.1858933 -0.45927,0.4483308 -0.18589,0.25150266 -0.22963,0.53581006 V 1.2419099 q 0.13122,0.3061772 0.32805,0.5686148 0.20776,0.2624376 0.45926,0.4592657 0.26244,0.1858933 0.55768,0.2952423 0.29525,0.109349 0.61236,0.109349 z"
         style="font-style:normal;font-variant:normal;font-weight:normal;font-stretch:normal;font-size:10.93489933px;line-height:1.25;font-family:Raleway;-inkscape-font-specification:Raleway;font-variant-ligatures:normal;font-variant-position:normal;font-variant-caps:normal;font-variant-numeric:normal;font-variant-alternates:normal;font-feature-settings:normal;text-indent:0;text-align:start;text-decoration:none;text-decoration-line:none;text-decoration-style:solid;text-decoration-color:#000000;letter-spacing:0px;word-spacing:0px;text-transform:none;writing-mode:lr-tb;direction:ltr;text-orientation:mixed;dominant-baseline:auto;baseline-shift:baseline;text-anchor:start;white-space:normal;shape-padding:0;vector-effect:none;fill:#1c80f3;fill-opacity:1;stroke:none;stroke-width:0.14644955;stroke-linecap:butt;stroke-linejoin:miter;stroke-miterlimit:4;stroke-dasharray:none;stroke-dashoffset:0;stroke-opacity:1"
         id="path3005"
         inkscape:connector-curvature="0" />
      <path
         d="m -360.24063,3.3304753 q -0.7217,0 -1.27938,-0.3608513 -0.54674,-0.3717866 -0.88573,-0.9294664 v 3.5101027 h -0.74357 v -8.0262162 h 0.66703 v 1.1044249 q 0.34992,-0.5358101 0.9076,-0.8638571 0.55768,-0.3389819 1.21377,-0.3389819 0.59048,0 1.08255,0.2515027 0.49208,0.2405678 0.85293,0.656094 0.36085,0.4045913 0.55768,0.94040126 0.20776,0.5358101 0.20776,1.1044249 0,0.6014194 -0.18589,1.13722954 -0.1859,0.5358101 -0.53581,0.9404013 -0.33899,0.4045913 -0.82012,0.6451591 -0.4702,0.2296325 -1.03882,0.2296325 z m -0.20776,-0.6560936 q 0.45927,0 0.83105,-0.1968282 0.38272,-0.1968282 0.64516,-0.5139402 0.27337,-0.328047 0.41553,-0.7326383 0.14215,-0.41552624 0.14215,-0.85292214 0,-0.4592658 -0.16402,-0.874792 -0.16403,-0.4155262 -0.44833,-0.73263816 -0.28431,-0.3171121 -0.67797,-0.5030054 -0.38272,-0.1858933 -0.83105,-0.1858933 -0.28431,0 -0.60142,0.1202839 -0.30618,0.109349 -0.57955,0.3061772 -0.26244,0.1858933 -0.45926,0.4483308 -0.1859,0.25150266 -0.22964,0.53581006 V 1.2419099 q 0.13122,0.3061772 0.32805,0.5686148 0.20776,0.2624376 0.45927,0.4592657 0.26243,0.1858933 0.55768,0.2952423 0.29524,0.109349 0.61235,0.109349 z"
         style="font-style:normal;font-variant:normal;font-weight:normal;font-stretch:normal;font-size:10.93489933px;line-height:1.25;font-family:Raleway;-inkscape-font-specification:Raleway;font-variant-ligatures:normal;font-variant-position:normal;font-variant-caps:normal;font-variant-numeric:normal;font-variant-alternates:normal;font-feature-settings:normal;text-indent:0;text-align:start;text-decoration:none;text-decoration-line:none;text-decoration-style:solid;text-decoration-color:#000000;letter-spacing:0px;word-spacing:0px;text-transform:none;writing-mode:lr-tb;direction:ltr;text-orientation:mixed;dominant-baseline:auto;baseline-shift:baseline;text-anchor:start;white-space:normal;shape-padding:0;vector-effect:none;fill:#1c80f3;fill-opacity:1;stroke:none;stroke-width:0.14644955;stroke-linecap:butt;stroke-linejoin:miter;stroke-miterlimit:4;stroke-dasharray:none;stroke-dashoffset:0;stroke-opacity:1"
         id="path3007"
         inkscape:connector-curvature="0" />
    </g>
  </g>
</svg>
